<?xml version="1.0" encoding="utf-8"?>
<!-- Generator: Adobe Illustrator 22.1.0, SVG Export Plug-In . SVG Version: 6.00 Build 0)  -->
<svg version="1.1" xmlns="http://www.w3.org/2000/svg" xmlns:xlink="http://www.w3.org/1999/xlink" x="0px" y="0px"
	 viewBox="0 0 485 130" style="enable-background:new 0 0 485 130;" xml:space="preserve">
<style type="text/css">
	.st0{fill:#ECB32D;}
	.st1{fill:#63C1A0;}
	.st2{fill:#E01A59;}
	.st3{fill:#331433;}
	.st4{fill:#D62027;}
	.st5{fill:#89D3DF;}
	.st6{fill:#258B74;}
	.st7{fill:#819C3C;}
	.st8{font-family:'DINAlternate-Bold';}
	.st9{font-size:36px;}
	.st10{fill:#A8A8A8;}
</style>
<g id="Layer_1">
	<g>
		<g>
			<path class="st0" d="M83.8,12.3c-1.9-5.7-8-8.8-13.7-7c-5.7,1.9-8.8,8-7,13.7l28.1,86.4c1.9,5.3,7.7,8.3,13.2,6.7
				c5.8-1.7,9.3-7.8,7.4-13.4C111.8,98.5,83.8,12.3,83.8,12.3z"/>
			<path class="st1" d="M40.3,26.4c-1.9-5.7-8-8.8-13.7-7c-5.7,1.9-8.8,8-7,13.7l28.1,86.4c1.9,5.3,7.7,8.3,13.2,6.7
				c5.8-1.7,9.3-7.8,7.4-13.4C68.3,112.6,40.3,26.4,40.3,26.4z"/>
			<path class="st2" d="M119.2,83.8c5.7-1.9,8.8-8,7-13.7c-1.9-5.7-8-8.8-13.7-7L26,91.3c-5.3,1.9-8.3,7.7-6.7,13.2
				c1.7,5.8,7.8,9.3,13.4,7.4C32.9,111.9,119.2,83.8,119.2,83.8z"/>
			<path class="st3" d="M44,108.3c5.6-1.8,12.9-4.2,20.7-6.7C62.9,96,60.5,88.7,58,80.9l-20.7,6.7L44,108.3z"/>
			<path class="st4" d="M87.6,94.1c7.8-2.5,15.1-4.9,20.7-6.7c-1.8-5.6-4.2-12.9-6.7-20.7l-20.7,6.7L87.6,94.1z"/>
			<path class="st5" d="M105,40.3c5.7-1.9,8.8-8,7-13.7c-1.9-5.7-8-8.8-13.7-7L11.9,47.7c-5.3,1.9-8.3,7.7-6.7,13.2
				c1.7,5.8,7.8,9.3,13.4,7.4C18.8,68.3,105,40.3,105,40.3z"/>
			<path class="st6" d="M29.9,64.7c5.6-1.8,12.9-4.2,20.7-6.7c-2.5-7.8-4.9-15.1-6.7-20.7L23.2,44L29.9,64.7z"/>
			<path class="st7" d="M73.4,50.6c7.8-2.5,15.1-4.9,20.7-6.7c-2.5-7.8-4.9-15.1-6.7-20.7l-20.7,6.7L73.4,50.6z"/>
		</g>
	</g>
</g>
<g id="Layer_2">
	<text transform="matrix(1 0 0 1 142 59.65)" class="st8 st9">Slack Slash Command</text>
	<text transform="matrix(1 0 0 1 142 98.9998)" class="st10 st8 st9">For Laravel</text>
</g>
</svg>
